<?xml version="1.0" encoding="utf-8"?>
<!-- Generator: Adobe Illustrator 18.1.0, SVG Export Plug-In . SVG Version: 6.00 Build 0)  -->
<!DOCTYPE svg PUBLIC "-//W3C//DTD SVG 1.1//EN" "http://www.w3.org/Graphics/SVG/1.1/DTD/svg11.dtd">
<svg version="1.1" id="Layer_1" xmlns="http://www.w3.org/2000/svg" xmlns:xlink="http://www.w3.org/1999/xlink" x="0px" y="0px"
	 width="347px" height="74.3px" viewBox="-124 383.6 347 74.3" enable-background="new -124 383.6 347 74.3" xml:space="preserve">
<g>
	<path fill="#1CA0FF" d="M-11.7,424.5c-1.1,1.7-3.5,3.6-6.5,3.6c-4.4,0-7.5-3-7.5-7.3c0-4.2,3.1-7.4,7.3-7.4c3.3,0,5.4,2.1,6.3,3.3
		l1.1,1.4l8.7-7.7l-0.9-1.2c-3.5-4.5-9.2-7.2-15.2-7.2c-10.9,0-19.4,8.3-19.4,18.9c0,10.5,8.5,18.8,19.3,18.8
		c6.9,0,12.2-2.6,16.3-8.1l1-1.3l-9.5-7.1L-11.7,424.5z"/>
	<path fill="#1CA0FF" d="M83.3,401.9c-4.2,0-8.4,1.6-11.6,4.5c-3-2.9-6.9-4.5-11.2-4.5c-2.6,0-5.1,0.6-7.3,1.8v-1.1H41.4v36.3h12.1
		v-22.5c0.9-1.1,3.1-3,6.1-3c0.9,0,2.6,0.2,3.7,1.5c0.7,0.8,1.2,1.9,1.2,4.6V439h12.1v-19.3c0-1.2-0.1-2.2-0.2-3.2
		c1.2-1.4,3.5-3.2,6.3-3.2c0.9,0,2.6,0.2,3.7,1.5c0.7,0.8,1.2,1.9,1.2,4.6v19.5h12.1v-19.2c0-5-1.2-8.9-3.7-11.9
		C93.2,404.1,88.4,401.9,83.3,401.9"/>
	<path fill="#1CA0FF" d="M213.5,423l-1,1.5c-1.1,1.7-3.5,3.6-6.5,3.6c-4.4,0-7.5-3-7.5-7.3c0-4.2,3.1-7.4,7.3-7.4
		c3.3,0,5.4,2.1,6.3,3.3l1.1,1.4l8.7-7.7l-0.9-1.2c-3.5-4.5-9.2-7.2-15.2-7.2c-10.9,0-19.4,8.3-19.4,18.9c0,10.5,8.5,18.8,19.3,18.8
		c6.9,0,12.2-2.6,16.3-8.1l1-1.3L213.5,423z"/>
	<path fill="#1CA0FF" d="M18.1,428.2c-4.1,0-7.4-3.3-7.4-7.4s3.3-7.4,7.4-7.4c4.1,0,7.4,3.3,7.4,7.4S22.2,428.2,18.1,428.2
		 M18.1,401.9c-10.8,0-19.2,8.3-19.2,18.9c0,10.5,8.4,18.8,19.2,18.8s19.2-8.3,19.2-18.8C37.3,410.2,28.9,401.9,18.1,401.9"/>
	<path fill="#1CA0FF" d="M123,428.2c-4.1,0-7.4-3.3-7.4-7.4s3.3-7.4,7.4-7.4c4.1,0,7.4,3.3,7.4,7.4S127.1,428.2,123,428.2
		 M124.6,401.9c-2.9,0-5.6,0.7-8,1.9v-1.2h-11.8v52.6h12.1v-17.3c2.2,1.1,4.6,1.7,7.2,1.7c5.3,0,10.5-2.3,13.8-6.1
		c2.9-3.4,4.6-7.9,4.6-12.6C142.4,410.2,134.6,401.9,124.6,401.9"/>
	<path fill="#1CA0FF" d="M164.1,428.2c-4.1,0-7.4-3.3-7.4-7.4s3.3-7.4,7.4-7.4s7.4,3.3,7.4,7.4S168.2,428.2,164.1,428.2
		 M170.4,403.8c-2.4-1.3-5.1-1.9-8-1.9c-10,0-17.8,8.3-17.8,18.9c0,4.7,1.6,9.2,4.6,12.6c3.3,3.8,8.4,6.1,13.7,6.1
		c2.8,0,5.3-0.6,7.6-1.9v1.2h11.8v-36.2h-11.8v1.2H170.4z"/>
	<path fill="#1CA0FF" d="M-68.5,420.7c0,10-8.2,18.2-18.2,18.2s-18.3-8.2-18.3-18.2s8.2-18.2,18.2-18.2v-18.9
		c-20.5,0-37.2,16.7-37.2,37.1c0,20.5,16.7,37.1,37.2,37.1s37.2-16.7,37.2-37.1H-68.5z"/>
	<path fill="#1CA0FF" d="M-101.5,420.7c0,8.1,6.6,14.7,14.7,14.7s14.7-6.6,14.7-14.7S-78.7,406-86.8,406
		C-94.9,406.1-101.5,412.6-101.5,420.7"/>
	<path fill="#1CA0FF" d="M-60.4,394.9c0,0-5.9,0.2-9.7,4c-3.8,3.8-4,9.7-4,9.7s5.9-0.2,9.7-4C-60.6,400.7-60.4,394.9-60.4,394.9"/>
</g>
</svg>
